<svg width="366" height="67" viewBox="0 0 366 67" fill="none" xmlns="http://www.w3.org/2000/svg">
<path d="M33.7679 41.6454L2.86851 0.00521657H16.7924L33.7656 22.7952L50.7433 0.00316138H67.3367V58.3521H54.9385V13.029L33.7702 41.6475L33.7679 41.6454ZM12.3982 58.4384H0V45.4147L12.3982 28.6751V58.4384ZM84.1154 58.4384V0.00521657H96.5136V43.3595L128.554 0.00521657H143.05V58.4384H131.034V15.7829L99.1831 58.4384H84.1154ZM236.483 58.4384V0.00521657H248.881V43.3595L280.924 0.00521657H295.417V58.4384H283.401V16.1302L251.937 58.4384H236.483ZM336.633 0.00521657C354.336 -0.247572 363.095 8.748 366 13.7133L356.397 18.3992C351.676 9.84958 341.972 8.58153 336.633 8.84254C328.858 9.21864 316.213 14.3278 316.213 29.5445C316.213 44.7591 330.139 49.0133 337.102 49.2373C348.267 49.2373 354.558 43.2115 356.34 39.9273L366 44.8228C358.056 56.8066 344.784 58.3254 337.102 58.3254C313.964 58.3254 304.506 40.9898 304.506 29.5445C304.506 11.4506 319.118 0.00521657 336.633 0.00521657Z" fill="#FC4C00"/>
<path fill-rule="evenodd" clip-rule="evenodd" d="M164.792 66.8345V58.1986H214.666V66.7482H227.158V49.0324H216.67V0.00585938H167.841C167.748 43.2738 160.499 49.0324 158.497 49.0324H152.204V66.8345H164.792ZM204.464 9.08775H179.475C178.904 36.1628 173.944 47.6616 171.847 49.0324H204.459V9.08775H204.464Z" fill="#FC4C00"/>
</svg>
