<svg width="211" height="43" viewBox="0 0 211 43" fill="none" xmlns="http://www.w3.org/2000/svg">
<path d="M19.4673 26.5817L1.6537 0.00332966H9.68088L19.4659 14.5499L29.2536 0.00201786H38.8198V37.2453H31.6722V8.31619L19.4686 26.583L19.4673 26.5817ZM7.14758 37.3004H0V28.9875L7.14758 18.3029V37.3004ZM48.4928 37.3004V0.00332966H55.6403V27.6757L74.112 0.00332966H82.4688V37.3004H75.5415V10.074L57.1793 37.3004H48.4928ZM136.333 37.3004V0.00332966H143.48V27.6757L161.953 0.00332966H170.309V37.3004H163.382V10.2957L145.242 37.3004H136.333ZM194.07 0.00332966C204.276 -0.158021 209.325 5.58372 211 8.75302L205.464 11.7439C202.742 6.28684 197.148 5.47746 194.07 5.64406C189.588 5.88412 182.298 9.14525 182.298 18.8578C182.298 28.569 190.326 31.2845 194.34 31.4274C200.777 31.4274 204.404 27.5812 205.431 25.485L211 28.6097C206.42 36.2588 198.769 37.2282 194.34 37.2282C181.001 37.2282 175.548 26.1632 175.548 18.8578C175.548 7.30873 183.972 0.00332966 194.07 0.00332966Z" fill="#FC4C00"/>
<path fill-rule="evenodd" clip-rule="evenodd" d="M95.0031 42.6594V37.1472H123.756V42.6043H130.957V31.2966H124.911V0.00366211H96.761C96.7069 27.6209 92.5279 31.2966 91.374 31.2966H87.7461V42.6594H95.0031ZM117.874 5.8005H103.468C103.138 23.0821 100.279 30.4216 99.0701 31.2966H117.871V5.8005H117.874Z" fill="#FC4C00"/>
</svg>
